<svg xmlns="http://www.w3.org/2000/svg"><defs><symbol id="icon-create" viewBox="0 0 32 32"><path d="M25 4.03c-.766 0-1.516.298-2.094.876L13 14.78l-.22.22-.06.313-.69 3.5-.31 1.468 1.467-.31 3.5-.69.313-.06.22-.22 9.874-9.906c1.152-1.153 1.152-3.035 0-4.188-.578-.578-1.328-.875-2.094-.875zm0 1.94c.234 0 .465.12.688.343.445.445.445.93 0 1.375L16 17.374l-1.72.344.345-1.72 9.688-9.688c.222-.222.453-.343.687-.343zM4 8v20h20V14.812l-2 2V26H6V10h9.188l2-2z"/></symbol><symbol id="icon-delete-2" viewBox="0 0 32 32"><path d="M15 4c-.523 0-1.06.184-1.438.563C13.184 4.94 13 5.476 13 6v1H7v2h1v16c0 1.645 1.355 3 3 3h12c1.645 0 3-1.355 3-3V9h1V7h-6V6c0-.523-.184-1.06-.563-1.438C20.06 4.184 19.523 4 19 4zm0 2h4v1h-4zm-5 3h14v16c0 .555-.445 1-1 1H11c-.555 0-1-.445-1-1zm2 3v11h2V12zm4 0v11h2V12zm4 0v11h2V12z"/></symbol><symbol id="icon-delete-3" viewBox="0 0 32 32"><path d="M7.22 5.78L5.78 7.22 14.563 16l-8.78 8.78 1.437 1.44L16 17.437l8.78 8.78 1.44-1.437L17.437 16l8.78-8.78-1.437-1.44L16 14.563z"/></symbol><symbol id="icon-delete-button" viewBox="0 0 32 32"><path d="M16 3C8.832 3 3 8.832 3 16s5.832 13 13 13 13-5.832 13-13S23.168 3 16 3zm0 2c6.086 0 11 4.914 11 11s-4.914 11-11 11S5 22.086 5 16 9.914 5 16 5zm-3.78 5.78l-1.44 1.44L14.564 16l-3.782 3.78 1.44 1.44L16 17.437l3.78 3.78 1.44-1.437L17.437 16l3.78-3.78-1.437-1.44L16 14.564z"/></symbol><symbol id="icon-delete" viewBox="0 0 32 32"><path d="M5 5v22h22V5zm2 2h18v18H7zm4.688 3.313l-1.407 1.406L14.564 16l-4.344 4.344 1.405 1.406 4.344-4.344 4.31 4.313 1.407-1.407L17.375 16l4.25-4.25-1.406-1.406-4.25 4.25z"/></symbol><symbol id="icon-download" viewBox="0 0 32 32"><path d="M15 4v16.563L9.72 15.28l-1.44 1.44 7 7 .72.686.72-.687 7-7-1.44-1.44L17 20.564V4zM7 26v2h18v-2z"/></symbol><symbol id="icon-edit" viewBox="0 0 32 32"><path d="M23.906 3.97c-1.047 0-2.093.405-2.906 1.217L5.187 21l-.062.313-1.094 5.5-.31 1.468 1.467-.31 5.5-1.095.313-.063L26.813 11c1.625-1.625 1.625-4.188 0-5.813-.813-.812-1.86-1.218-2.907-1.218zm0 1.905c.504 0 1.012.23 1.5.72.973.97.973 2.026 0 3l-.718.686-2.97-2.967.688-.72c.49-.488.996-.718 1.5-.718zM20.313 8.72l2.968 2.967-12.093 12.094c-.656-1.28-1.687-2.31-2.968-2.968zM6.938 22.436c1.2.485 2.14 1.426 2.625 2.625l-3.282.657z"/></symbol><symbol id="icon-hamburger-button" viewBox="0 0 32 32"><path d="M4 7v2h24V7zm0 8v2h24v-2zm0 8v2h24v-2z"/></symbol><symbol id="icon-line-in-square" viewBox="0 0 32 32"><path d="M5 5v22h22V5zm2 2h18v18H7zm4 8v2h10v-2z"/></symbol><symbol id="icon-minus" viewBox="0 0 32 32"><path d="M16 3C8.832 3 3 8.832 3 16s5.832 13 13 13 13-5.832 13-13S23.168 3 16 3zm0 2c6.086 0 11 4.914 11 11s-4.914 11-11 11S5 22.086 5 16 9.914 5 16 5zm-6 10v2h12v-2z"/></symbol><symbol id="icon-more-info" viewBox="0 0 32 32"><path d="M16 3C8.832 3 3 8.832 3 16s5.832 13 13 13 13-5.832 13-13S23.168 3 16 3zm0 2c6.086 0 11 4.914 11 11s-4.914 11-11 11S5 22.086 5 16 9.914 5 16 5zm-1 5v2h2v-2zm0 4v8h2v-8z"/></symbol><symbol id="icon-more" viewBox="0 0 32 32"><path d="M6 14c-1.105 0-2 .895-2 2s.895 2 2 2 2-.895 2-2-.895-2-2-2zm10 0c-1.105 0-2 .895-2 2s.895 2 2 2 2-.895 2-2-.895-2-2-2zm10 0c-1.105 0-2 .895-2 2s.895 2 2 2 2-.895 2-2-.895-2-2-2z"/></symbol><symbol id="icon-notification" viewBox="0 0 32 32"><path d="M16 3c-1.105 0-2 .895-2 2 0 .086.02.168.03.25C10.575 6.133 8 9.273 8 13v9c0 .566-.434 1-1 1H6v2h7.188c-.114.316-.188.648-.188 1 0 1.645 1.355 3 3 3s3-1.355 3-3c0-.352-.074-.684-.188-1H26v-2h-1c-.566 0-1-.434-1-1v-8.72c0-3.757-2.512-7.108-6.03-8.03.01-.082.03-.164.03-.25 0-1.105-.895-2-2-2zm-.438 4c.145-.012.29 0 .438 0h.188C19.453 7.098 22 9.96 22 13.28V22c0 .352.074.684.188 1H9.813c.113-.316.187-.648.187-1v-9c0-3.176 2.445-5.773 5.563-6zM16 25c.563 0 1 .438 1 1 0 .563-.438 1-1 1-.563 0-1-.438-1-1 0-.563.438-1 1-1z"/></symbol><symbol id="icon-plus-math" viewBox="0 0 32 32"><path d="M15 5v10H5v2h10v10h2V17h10v-2H17V5z"/></symbol><symbol id="icon-plus-sign" viewBox="0 0 32 32"><path d="M5 5v22h22V5zm2 2h18v18H7zm8 4v4h-4v2h4v4h2v-4h4v-2h-4v-4z"/></symbol><symbol id="icon-plus" viewBox="0 0 32 32"><path d="M16 3C8.832 3 3 8.832 3 16s5.832 13 13 13 13-5.832 13-13S23.168 3 16 3zm0 2c6.086 0 11 4.914 11 11s-4.914 11-11 11S5 22.086 5 16 9.914 5 16 5zm-1 5v5h-5v2h5v5h2v-5h5v-2h-5v-5z"/></symbol><symbol id="icon-search" viewBox="0 0 32 32"><path d="M19 3C13.488 3 9 7.488 9 13c0 2.395.84 4.59 2.25 6.313L3.28 27.28l1.44 1.44 7.968-7.97C14.41 22.16 16.605 23 19 23c5.512 0 10-4.488 10-10S24.512 3 19 3zm0 2c4.43 0 8 3.57 8 8s-3.57 8-8 8-8-3.57-8-8 3.57-8 8-8z"/></symbol><symbol id="icon-subtract" viewBox="0 0 32 32"><path d="M5 15v2h22v-2z"/></symbol><symbol id="icon-three-dots-symbol" viewBox="0 0 32 32"><path d="M16 6c-1.105 0-2 .895-2 2s.895 2 2 2 2-.895 2-2-.895-2-2-2zm0 8c-1.105 0-2 .895-2 2s.895 2 2 2 2-.895 2-2-.895-2-2-2zm0 8c-1.105 0-2 .895-2 2s.895 2 2 2 2-.895 2-2-.895-2-2-2z"/></symbol></defs></svg>